<?xml version="1.0" encoding="UTF-8" standalone="no"?>
<svg
   xmlns:dc="http://purl.org/dc/elements/1.1/"
   xmlns:cc="http://creativecommons.org/ns#"
   xmlns:rdf="http://www.w3.org/1999/02/22-rdf-syntax-ns#"
   xmlns:svg="http://www.w3.org/2000/svg"
   xmlns="http://www.w3.org/2000/svg"
   id="svg4562"
   version="1.1"
   viewBox="0 0 135.46666 135.46667"
   height="512"
   width="512">
  <defs
     id="defs4556" />
  <metadata
     id="metadata4559">
    <rdf:RDF>
      <cc:Work
         rdf:about="">
        <dc:format>image/svg+xml</dc:format>
        <dc:type
           rdf:resource="http://purl.org/dc/dcmitype/StillImage" />
        <dc:title></dc:title>
      </cc:Work>
    </rdf:RDF>
  </metadata>
  <g
     transform="translate(0,-161.53332)"
     id="layer1">
    <g
       style="stroke-width:1.16363204"
       transform="matrix(0.22737715,0,0,0.22737715,9.5250363,171.05841)"
       id="g5219">
      <g
         style="stroke-width:1.16363204"
         id="g5117">
	<path
   style="fill:#faf0d4;stroke-width:1.16363204"
   d="m 372.14,8.504 c -40.87,-14.466 -104.69,-3 -121.936,21.921 -2.439,3.529 -1.996,8.296 1.06,11.308 5.538,5.464 54.952,53.367 84.204,53.367 27.261,0 80.196,-13.286 82.438,-13.851 3.133,-0.793 5.581,-3.228 6.386,-6.352 0.112,-0.437 10.605,-44.16 -52.152,-66.393 z"
   id="path5113" />

	<path
   style="fill:#faf0d4;stroke-width:1.16363204"
   d="m 488.04,290.933 c -1.965,-2.672 -5.253,-4.033 -8.532,-3.49 -2.943,0.483 -72.177,12.316 -82.088,61.865 -9.092,45.446 0.018,86.729 0.409,88.462 0.805,3.551 3.71,6.248 7.317,6.782 5.111,0.759 10.175,1.129 15.16,1.129 20.081,0 38.827,-6.076 53.905,-17.685 19.138,-14.73 30.932,-37.44 34.104,-65.683 4.214,-37.517 -19.276,-70.018 -20.275,-71.38 z"
   id="path5115" />

</g>
      <g
         style="stroke-width:1.16363204"
         id="g5123">
	<path
   style="fill:#fff5dc;stroke-width:1.16363204"
   d="M 203.016,182.261 C 194.281,112.39 148.598,63.286 143.143,57.64 134.627,46.669 112.797,45.566 96.456,48.021 80.611,50.395 27.33,63.022 6.982,125.838 c -21.357,65.92 12.096,125.492 22.857,142.186 10.872,16.867 27.2,35.414 40.413,36.905 0.603,0.061 1.259,0.095 1.978,0.095 18.039,0 71.479,-21.34 103.053,-53.298 21.45,-21.709 30.78,-45.083 27.733,-69.465 z"
   id="path5119" />

	<path
   style="fill:#fff5dc;stroke-width:1.16363204"
   d="M 228.807,415.171 C 226.04,403.432 200.439,299.879 153.411,281.065 l -4.754,-1.905 C 102.798,260.785 55.39,241.755 35.555,274.79 c -14.988,24.985 -16.53,58.814 -4.344,95.27 16.509,49.368 55.444,96.133 92.582,111.18 9.597,3.887 18.978,5.835 28.093,5.835 9.804,0 19.297,-2.249 28.394,-6.757 30.079,-14.893 45.441,-49.764 48.45,-60.804 0.387,-1.413 0.414,-2.912 0.077,-4.343 z"
   id="path5121" />

</g>
      <path
         style="fill:#fffaeb;stroke-width:1.16363204"
         d="m 436.595,342.309 c -9.648,-28.287 -31.936,-51.135 -46.696,-54.728 l -0.495,-0.12 c -10.493,-2.552 -11.975,-2.543 -22.715,0.224 -7.338,1.879 -21.004,5.387 -50.394,10.532 -50.398,8.834 -115.206,66.614 -130.843,116.653 -7.085,22.667 -3.646,41.749 9.942,55.168 38.215,37.741 139.096,39.81 160.695,39.81 2.138,0 3.499,-0.018 3.947,-0.025 3.482,-0.061 6.606,-2.181 7.973,-5.387 0.12,-0.285 12.716,-29.338 54.63,-81.722 23.975,-29.977 20.82,-60.272 13.956,-80.405 z"
         id="path5125" />
      <path
         style="fill:#fff5dc;stroke-width:1.16363204"
         d="m 504.118,176.874 c -18.151,-10.998 -34.268,-39.292 -44.933,-58.017 -3.146,-5.529 -5.869,-10.291 -8.106,-13.729 -21.404,-32.932 -43.787,-50.837 -66.528,-53.224 -21.021,-2.211 -35.117,9.442 -40.219,14.548 -0.999,0.999 -1.745,2.224 -2.172,3.568 -25.554,80.476 -16.057,89.979 -13.26,92.737 1.991,2.749 7.02,17.393 11.459,30.303 13.6,39.577 36.362,105.811 68.298,137.743 l 19.611,19.616 c 1.724,1.724 3.981,2.586 6.24,2.586 2.258,0 4.516,-0.862 6.24,-2.586 0.298,-0.301 0.569,-0.612 0.814,-0.94 40.327,-16.944 63.756,-89.211 69.182,-132.468 3.733,-29.752 -1.58,-37.077 -6.626,-40.137 z"
         id="path5127" />
      <path
         style="fill:#fffaeb;stroke-width:1.16363204"
         d="M 358.703,79.285 C 346.559,57.26 321.751,42.319 286.953,36.071 254.866,30.313 177.905,5.324 177.134,5.074 c -2.288,-0.746 -4.775,-0.517 -6.895,0.608 -2.12,1.133 -3.685,3.086 -4.336,5.4 -0.043,0.156 -4.727,15.966 -16.862,27.2 -65.101,60.296 -52.306,109.1 -46.842,129.939 l 0.759,2.93 c 0.991,3.965 4.546,6.689 8.559,6.689 0.267,0 0.534,-0.009 0.805,-0.034 l 239.051,-21.831 c 3.288,-0.301 6.137,-2.414 7.378,-5.473 10.877,-26.805 10.859,-51.433 -0.048,-71.217 z"
         id="path5129" />
      <path
         style="fill:#f8ebc8;stroke-width:1.16363204"
         d="m 323.272,380.913 c -0.108,-0.94 -0.366,-1.845 -0.759,-2.697 -0.633,-1.361 -16.014,-33.665 -61.934,-61.218 -48.889,-29.348 -117.532,25.812 -120.428,28.182 -2.482,2.025 -3.671,5.231 -3.111,8.386 9.273,52.177 50.294,61.218 86.484,69.2 4.46,0.983 8.895,1.956 13.234,3.008 16.401,3.981 26.49,9.334 29.98,15.901 0.728,1.37 2.939,5.541 8.183,5.801 0.116,0.009 0.233,0.009 0.349,0.009 3.012,0 6.309,-1.905 7.968,-4.395 3.396,-5.093 8.839,-10.239 14.604,-15.695 13.024,-12.319 27.783,-26.272 25.43,-46.482 z"
         id="path5131" />
      <path
         style="fill:#faf0d4;stroke-width:1.16363204"
         d="m 157.794,144.976 c -1.59,-1.25 -3.693,-1.874 -5.581,-1.888 -1.853,0.025 -45.575,1.176 -61.395,47.808 -17.802,52.471 -25.7,127.945 -26.028,131.124 -0.341,3.292 1.194,6.499 3.969,8.308 0.509,0.328 12.829,8.231 45.938,20.651 10.967,4.112 22.973,5.921 34.845,5.921 31.734,0 62.45,-12.937 69.475,-29.338 0.199,-0.457 0.353,-0.922 0.466,-1.388 0.5,-1 0.819,-2.112 0.905,-3.301 8.734,-120.35 -59.676,-175.604 -62.594,-177.897 z"
         id="path5133" />
      <path
         style="fill:#f8ebc8;stroke-width:1.16363204"
         d="m 235.345,117.832 c -0.909,-1.948 -2.5,-3.49 -4.469,-4.348 -52.065,-22.663 -87.966,36.604 -103.299,61.908 -1.827,3.016 -3.378,5.577 -4.637,7.464 -3.215,4.809 -1.646,9.506 4.671,13.962 6.886,4.861 27.838,19.642 38.345,38.465 13.376,23.969 27.006,36.819 41.671,39.301 1.487,0.25 3.146,0.414 4.947,0.414 6.343,0 14.432,-2.034 22.814,-9.49 0.905,-0.802 1.637,-1.784 2.146,-2.878 1.336,-2.879 32.259,-71.32 -2.189,-144.798 z"
         id="path5135" />
      <path
         style="fill:#faf0d4;stroke-width:1.16363204"
         d="m 368.326,163.24 c -0.767,-2.525 -8.67,-25.369 -50.311,-51.466 -46.442,-29.105 -80.162,-20.043 -81.58,-19.642 -2.866,0.814 -5.141,3.047 -6.029,5.891 -0.043,0.133 -4.49,14.104 -27.515,64.089 -5.425,11.773 -3.87,24.469 4.383,35.741 10.277,14.048 29.347,23.572 46.144,23.572 1.741,0 3.461,-0.104 5.136,-0.31 0.884,-0.113 1.745,-0.353 2.559,-0.724 l 102.42,-46.558 c 4.027,-1.829 6.077,-6.362 4.793,-10.593 z"
         id="path5137" />
      <path
         style="fill:#f8ebc8;stroke-width:1.16363204"
         d="m 376.35,160.637 c -2.387,-3.31 -6.775,-4.555 -10.553,-2.982 -0.211,0.086 -21.408,8.636 -61.783,8.636 -20.384,0 -35.638,5.498 -45.334,16.333 -11.062,12.359 -10.446,26.632 -9.989,30.708 0.151,1.361 0.617,2.672 1.361,3.827 1.043,1.603 26.718,39.732 134.813,78.007 0.961,0.345 1.956,0.509 2.948,0.509 2.034,0 4.042,-0.707 5.649,-2.043 0.892,-0.741 21.801,-18.47 21.801,-44.033 0.001,-34.648 -37.327,-86.764 -38.913,-88.962 z"
         id="path5139" />
      <path
         style="fill:#f5e1b9;stroke-width:1.16363204"
         d="m 385.076,263.354 c -8.115,-13.527 -20.273,-21.747 -32.797,-22.445 3.838,5.413 6.362,11.108 7.057,16.964 5.046,42.498 -25.3,71.949 -47.459,93.461 -9.352,9.072 -18.175,17.679 -21.144,24.229 4.092,2.012 8.233,4.885 12.844,8.098 11.993,8.351 26.924,18.745 51.178,20.314 0.194,0.009 0.384,0.018 0.577,0.018 4.413,0 8.188,-3.284 8.748,-7.722 0.043,-0.345 4.555,-34.931 22.21,-68.027 13.089,-24.538 7.952,-49.609 -1.214,-64.89 z"
         id="path5141" />
      <path
         style="fill:#ebd7b4;stroke-width:1.16363204"
         d="m 359.336,257.872 c -2.141,-18.022 -20.111,-34.836 -48.075,-44.98 -18.724,-6.777 -43.897,-10.702 -60.668,-3.057 -3.001,30.381 -12.338,51.236 -13.061,52.795 -0.509,1.094 -1.241,2.077 -2.146,2.878 -1.615,1.436 -3.212,2.616 -4.794,3.674 0,0 -18.653,51.391 -19.01,53.054 -2.021,9.454 -0.07,38.482 34.298,47.627 13.264,3.525 23.142,7.584 29.347,12.058 0.97,0.698 3.158,2.276 6.133,2.276 0.918,0 1.909,-0.147 2.964,-0.517 2.733,-0.974 4.852,-3.275 5.606,-6.068 1.818,-6.739 11.597,-16.238 21.948,-26.278 22.159,-21.513 52.506,-50.963 47.458,-93.462 z"
         id="path5143" />
      <path
         style="fill:#f5e1b9;stroke-width:1.16363204"
         d="m 244.076,244.184 c -3.13,10.843 -6.144,17.59 -6.541,18.446 -0.509,1.094 -1.241,2.077 -2.146,2.878 -8.382,7.455 -16.471,9.49 -22.814,9.49 -1.801,0 -3.461,-0.163 -4.947,-0.414 -14.665,-2.482 -28.295,-15.332 -41.671,-39.301 -2.951,-5.286 -6.753,-10.204 -10.808,-14.723 -6.026,13.238 -11.281,38.165 -3.667,61.436 5.955,18.185 18.406,31.898 37.004,40.757 15.996,7.61 32.854,10.833 48.601,10.833 20.47,0 39.055,-5.448 51.406,-13.756 10.2,-6.87 15.022,-15.447 15.022,-24.193 -10e-4,-6.376 -3.901,-40.575 -59.439,-51.453 z"
         id="path5145" />
      <path
         style="fill:#dcc39b;stroke-width:1.16363204"
         d="m 248.994,222.107 -4.918,22.077 c 37.8,7.403 51.657,25.598 56.667,38.484 17.239,-19.754 15.18,-76.482 -51.749,-60.561 z"
         id="path5147" />
      <g
         style="stroke-width:1.16363204"
         id="g5149">
</g>
      <g
         style="stroke-width:1.16363204"
         id="g5151">
</g>
      <g
         style="stroke-width:1.16363204"
         id="g5153">
</g>
      <g
         style="stroke-width:1.16363204"
         id="g5155">
</g>
      <g
         style="stroke-width:1.16363204"
         id="g5157">
</g>
      <g
         style="stroke-width:1.16363204"
         id="g5159">
</g>
      <g
         style="stroke-width:1.16363204"
         id="g5161">
</g>
      <g
         style="stroke-width:1.16363204"
         id="g5163">
</g>
      <g
         style="stroke-width:1.16363204"
         id="g5165">
</g>
      <g
         style="stroke-width:1.16363204"
         id="g5167">
</g>
      <g
         style="stroke-width:1.16363204"
         id="g5169">
</g>
      <g
         style="stroke-width:1.16363204"
         id="g5171">
</g>
      <g
         style="stroke-width:1.16363204"
         id="g5173">
</g>
      <g
         style="stroke-width:1.16363204"
         id="g5175">
</g>
      <g
         style="stroke-width:1.16363204"
         id="g5177">
</g>
    </g>
  </g>
</svg>
