<?xml version="1.0" standalone="no"?>
<!DOCTYPE svg PUBLIC "-//W3C//DTD SVG 20010904//EN"
 "http://www.w3.org/TR/2001/REC-SVG-20010904/DTD/svg10.dtd">
<svg version="1.0" xmlns="http://www.w3.org/2000/svg"
 width="700.000000pt" height="700.000000pt" viewBox="0 0 700.000000 700.000000"
 preserveAspectRatio="xMidYMid meet">
<metadata>
Created by potrace 1.11, written by Peter Selinger 2001-2013
</metadata>
<g transform="translate(0.000000,700.000000) scale(0.100000,-0.100000)"
fill="#000000" stroke="none">
<path d="M4349 6486 c-2 -2 -47 -6 -99 -10 -307 -20 -600 -118 -746 -249 l-49
-44 -205 59 c-113 32 -312 92 -443 133 -131 41 -250 75 -263 75 -35 0 -78 -24
-91 -52 -7 -12 -23 -48 -35 -78 -46 -109 -94 -176 -211 -297 l-118 -121 -57
19 c-130 45 -346 44 -527 -2 -80 -20 -232 -81 -313 -125 -384 -209 -637 -616
-689 -1105 -9 -89 -9 -280 0 -364 5 -38 9 -77 9 -85 2 -40 50 -246 78 -335 68
-212 190 -466 282 -586 15 -20 28 -42 28 -48 0 -7 -12 -35 -26 -64 -26 -51
-61 -143 -70 -182 -59 -273 -49 -499 32 -787 167 -587 648 -1190 1100 -1378
122 -51 217 -71 329 -72 171 0 311 45 459 146 l68 47 47 -38 c141 -117 339
-209 611 -283 58 -15 119 -31 135 -33 17 -3 55 -10 85 -17 30 -6 69 -13 85
-15 17 -3 41 -7 55 -10 14 -2 44 -7 68 -10 58 -7 122 -15 152 -20 107 -15 425
-35 615 -37 111 -2 141 11 174 72 81 153 147 263 238 400 120 181 163 243 173
250 4 3 9 12 12 20 4 12 32 15 164 16 87 0 177 4 199 8 158 31 298 86 415 164
72 48 196 172 247 247 72 107 149 284 166 380 3 17 12 66 21 110 16 88 18 262
4 334 -38 194 -106 373 -193 511 l-23 37 29 69 c43 100 130 361 144 434 2 8
12 51 23 95 18 71 32 140 37 185 1 14 7 45 22 135 9 58 11 255 2 297 -16 74
-48 124 -103 162 -116 81 -221 202 -347 401 -73 116 -61 96 -176 288 -48 82
-92 156 -98 165 -13 23 -147 203 -166 223 -8 8 -39 41 -68 72 l-55 57 -2 74
c-7 256 -166 469 -459 614 -119 59 -247 102 -350 119 -16 2 -41 6 -55 9 -14 2
-70 7 -125 10 -55 3 -109 7 -121 9 -12 3 -23 3 -25 1z"/>
</g>
</svg>
