<?xml version="1.0" encoding="UTF-8" standalone="no"?>
<!-- Created with Inkscape (http://www.inkscape.org/) -->

<svg
   xmlns:dc="http://purl.org/dc/elements/1.1/"
   xmlns:cc="http://creativecommons.org/ns#"
   xmlns:rdf="http://www.w3.org/1999/02/22-rdf-syntax-ns#"
   xmlns:svg="http://www.w3.org/2000/svg"
   xmlns="http://www.w3.org/2000/svg"
   xmlns:sodipodi="http://sodipodi.sourceforge.net/DTD/sodipodi-0.dtd"
   xmlns:inkscape="http://www.inkscape.org/namespaces/inkscape"
   width="320"
   height="128"
   viewBox="0 0 84.666665 33.866668"
   version="1.1"
   id="svg8"
   inkscape:version="0.92.3 (2405546, 2018-03-11)"
   sodipodi:docname="logo-inkscape.svg">
  <defs
     id="defs2" />
  <sodipodi:namedview
     id="base"
     pagecolor="#ffffff"
     bordercolor="#666666"
     borderopacity="1.0"
     inkscape:pageopacity="0.0"
     inkscape:pageshadow="2"
     inkscape:zoom="2.0000001"
     inkscape:cx="375.54287"
     inkscape:cy="69.40828"
     inkscape:document-units="mm"
     inkscape:current-layer="layer1"
     showgrid="false"
     units="px"
     inkscape:window-width="2560"
     inkscape:window-height="1017"
     inkscape:window-x="-8"
     inkscape:window-y="32"
     inkscape:window-maximized="1"
     inkscape:snap-global="false"
     inkscape:object-paths="false" />
  <metadata
     id="metadata5">
    <rdf:RDF>
      <cc:Work
         rdf:about="">
        <dc:format>image/svg+xml</dc:format>
        <dc:type
           rdf:resource="http://purl.org/dc/dcmitype/StillImage" />
        <dc:title />
      </cc:Work>
    </rdf:RDF>
  </metadata>
  <g
     inkscape:label="レイヤー 1"
     inkscape:groupmode="layer"
     id="layer1"
     transform="translate(0,-263.13332)">
    <path
       style="font-style:normal;font-variant:normal;font-weight:normal;font-stretch:normal;font-size:medium;line-height:1.25;font-family:'Signato 016';-inkscape-font-specification:'Signato 016, ';letter-spacing:0px;word-spacing:0px;fill:#000000;fill-opacity:1;stroke:none;stroke-width:0.26458332"
       d="m 58.572715,265.84633 c -0.27221,0 -0.494028,0.12732 -0.664158,0.38255 -0.153118,0.23824 -0.22929,0.55323 -0.22929,0.94454 0,0.37428 0.03414,0.68807 0.102169,0.94328 -0.170143,0.35726 -0.382795,0.7576 -0.637993,1.19996 -0.255196,0.44232 -0.578145,0.95297 -0.969447,1.53143 -0.391301,0.57844 -0.723405,1.06287 -0.995615,1.45418 -0.255195,0.37428 -0.63849,0.91904 -1.148883,1.63361 -0.510393,0.69754 -0.841252,1.16489 -0.99437,1.40307 -1.395076,2.07559 -3.284077,4.57639 -5.665909,7.50263 -0.08507,0.10196 -0.263604,0.21363 -0.535814,0.33271 -0.272209,0.10196 -0.408712,0.20328 -0.408712,0.30527 0,0.20424 0.178533,0.30655 0.535812,0.30655 0.238189,0 0.528254,-0.23751 0.868516,-0.71401 0.119095,-0.136 0.501139,-0.59555 1.147637,-1.37817 0.646498,-0.7996 1.071825,-1.33521 1.275983,-1.60744 0.221165,-0.27218 0.570337,-0.70668 1.046705,-1.30213 0.476364,-0.61247 0.88463,-1.15725 1.224892,-1.63361 0.357276,-0.47637 0.706443,-0.96079 1.046704,-1.45419 2.226577,-3.04077 3.743436,-5.22381 4.574347,-6.57679 0.349251,0.63143 0.862196,1.05138 1.547627,1.24858 -0.952016,1.93888 -1.938225,4.46277 -2.958185,7.57365 -1.922481,0.61248 -3.334967,1.29374 -4.236661,2.04232 -0.901695,0.73157 -1.351992,1.65838 -1.351992,2.78125 0,0.62949 0.187696,1.12307 0.561979,1.48033 0.391301,0.37428 0.900699,0.56074 1.530183,0.56074 0.935721,0 1.685245,-0.46738 2.246676,-1.40308 0.578445,-0.95274 1.224344,-2.5346 1.938894,-4.7463 0.01713,-0.0683 0.03407,-0.12852 0.05109,-0.1794 0.01712,-0.0682 0.04323,-0.14419 0.07726,-0.22932 0.03402,-0.0851 0.05901,-0.15336 0.076,-0.20447 l 1.480339,-0.43365 c 0.238187,-0.0683 0.382597,-0.13648 0.433634,-0.20448 0.06805,-0.0851 0.04309,-0.13624 -0.076,-0.15336 -0.119093,-0.034 -0.272655,-0.0249 -0.459801,0.0263 -0.293779,0.0774 -0.725308,0.20013 -1.229877,0.34766 0.96255,-2.81419 1.917699,-5.20333 2.863486,-7.16246 0.782601,-0.0679 1.487599,-0.40806 2.117082,-1.02053 0.646501,-0.61247 0.970695,-1.19012 0.970695,-1.73452 0,-0.23823 -0.102388,-0.44296 -0.306535,-0.61308 -0.204165,-0.1871 -0.44304,-0.28039 -0.715248,-0.28039 -0.799618,0 -1.734338,1.03836 -2.806164,3.11397 -0.629485,-0.18712 -1.098094,-0.65575 -1.404329,-1.40432 0.544417,-1.00378 0.817427,-1.64967 0.817427,-1.9389 0,-0.22113 -0.06824,-0.39965 -0.204358,-0.53583 -0.136119,-0.13623 -0.314643,-0.20424 -0.535813,-0.20424 z m -47.587661,0.40746 c -1.7013113,0 -3.0546999,0.42537 -4.0584724,1.276 -1.0037737,0.83366 -1.5052611,1.96522 -1.5052611,3.39432 0,0.66353 0.1614754,1.51415 0.4847235,2.55195 0.3232492,1.0378 0.7656399,1.93963 1.3270712,2.70523 0.1020818,0.15312 0.1953017,0.22931 0.280368,0.22931 0.1190917,-0.0169 0.1190917,-0.13528 0,-0.35639 -0.9527339,-1.87144 -1.42925,-3.58189 -1.42925,-5.13008 0,-1.27598 0.4095106,-2.2802 1.226139,-3.01177 0.833642,-0.73157 1.9639658,-1.09657 3.3930668,-1.09657 2.024558,0 3.624737,0.33086 4.798639,0.99438 1.190917,0.66352 1.785631,1.54831 1.785631,2.65415 0,1.15687 -0.620929,2.3488 -1.862886,3.57374 -1.201437,1.20143 -2.485273,2.01508 -3.850377,2.44729 -0.272844,-0.42159 -0.688864,-0.63548 -1.253553,-0.63548 h -0.09095 c 0.727226,-1.77433 1.395589,-3.26418 2.004935,-4.46595 0.612472,-1.22489 1.037799,-1.90606 1.275984,-2.0423 0.170118,-0.10197 0.272508,-0.18616 0.306535,-0.25421 0.05105,-0.068 0.03398,-0.10218 -0.05109,-0.10218 -0.08507,0 -0.212413,0.0251 -0.382546,0.0759 -0.61247,0.20424 -1.233401,0.83424 -1.862883,1.88906 -0.578447,0.95274 -1.480291,2.99406 -2.7052339,6.12446 -1.7353361,4.44041 -2.9351579,6.66029 -3.5986685,6.66029 -0.2892228,0 -0.5268582,-0.47653 -0.7140019,-1.42925 v -0.051 c -0.034027,-0.13624 -0.094369,-0.20425 -0.1794349,-0.20425 -0.1190919,0.0169 -0.1702912,0.14421 -0.1532674,0.38257 0.1020773,1.27598 0.4433373,1.91396 1.0217827,1.91396 0.7315629,0 1.4286513,-0.57764 2.092162,-1.73454 0.6635105,-1.1739 1.462977,-2.96053 2.3986975,-5.35937 l 0.05109,-0.15336 c 0.1361083,0.0342 0.2726054,0.0511 0.4087124,0.0511 0.241526,0 0.482447,-0.0241 0.723971,-0.0637 0.147789,0.46886 0.254968,1.36238 0.321486,2.69277 0.03402,0.57845 0.06024,0.97762 0.07726,1.19873 0.01713,0.20424 0.05115,0.54419 0.102169,1.02054 0.06805,0.45935 0.144221,0.79136 0.229268,0.99561 l 0.357623,0.71524 c 0.153118,0.27221 0.339565,0.45875 0.560734,0.56075 0.221165,0.10196 0.485025,0.15336 0.79126,0.15336 0.691346,0 1.585567,-0.45386 2.681557,-1.35947 0.09797,0.95912 0.642639,1.4668 1.639835,1.51273 0.799616,-0.0169 1.641118,-0.24673 2.5258,-0.68908 0.855249,-0.41957 1.614965,-0.95831 2.286548,-1.60743 0.0014,-3.3e-4 0.0023,3.5e-4 0.0038,0 0.255198,-0.22111 0.587302,-0.51123 0.995616,-0.86852 0.317854,-0.27966 0.48213,-0.42524 0.647958,-0.57195 -0.495279,1.12713 -0.817319,1.96942 -0.928325,2.461 0,0.59538 0.322951,0.96959 0.969448,1.12272 0.850653,0 2.096297,-0.75949 3.780597,-2.25665 1.020783,-0.88468 1.653889,-1.40125 2.011166,-1.67347 l 0.05233,-0.0145 c -0.846411,1.97905 -1.294721,3.1843 -1.328318,3.58747 -0.01713,0.10197 0.0092,0.18736 0.07726,0.25543 0.08508,0.068 0.195339,0.1023 0.331455,0.1023 0.238189,0 0.544068,-0.1876 0.918357,-0.56198 0.833642,-0.85066 1.676389,-1.59895 2.527045,-2.24543 0.765144,-0.59687 1.326142,-0.93919 1.705879,-1.05418 -0.387475,0.80928 -0.609536,1.59532 -0.659176,2.35633 0.01713,0.52742 0.144365,0.9094 0.382546,1.14763 0.255197,0.23824 0.663461,0.35763 1.224893,0.35763 1.524164,0 2.965496,-0.49285 4.326378,-1.46165 -0.01688,0.17193 -0.03363,0.34474 -0.03363,0.54328 0,0.57851 0.417421,0.90146 1.251062,0.96946 0.601077,-0.079 1.225166,-0.43445 1.870362,-1.04296 -0.01472,0.1114 -0.03363,0.23559 -0.03363,0.30278 0,0.45937 0.187696,0.68909 0.561978,0.68909 0.731566,0 1.420747,-0.17843 2.067241,-0.53582 0.646501,-0.37428 1.386868,-0.94403 2.220509,-1.70962 0.119094,-0.17023 0.136166,-0.28173 0.05109,-0.33271 -0.06805,-0.0679 -0.204551,-0.0589 -0.408712,0.0263 -0.901695,0.78259 -1.607937,1.32737 -2.118331,1.63362 -0.49338,0.30623 -0.943679,0.45978 -1.351992,0.45978 -0.08507,0 -0.153311,-0.0774 -0.204359,-0.23053 -0.03402,-0.15312 -0.02612,-0.30551 0.0249,-0.45855 0.05105,-0.15311 0.0943,-0.29871 0.128354,-0.43488 0.05105,-0.15312 0.09308,-0.28834 0.127099,-0.40746 0.05105,-0.11911 0.110149,-0.27265 0.178195,-0.45981 0.221166,-0.20424 0.332702,-0.35772 0.332702,-0.4598 0,-0.0679 -0.0092,-0.11791 -0.02615,-0.1519 0.10207,-0.11912 0.153262,-0.20448 0.153262,-0.25545 0,-0.0511 -0.05118,-0.11142 -0.153262,-0.17941 H 44.00242 c -0.287078,-0.76424 -0.631032,-1.192 -1.034245,-1.27598 -0.187141,0 -0.366929,0.0263 -0.537058,0.0772 -0.170118,0.034 -0.322447,0.068 -0.458559,0.10218 -0.136093,0.034 -0.280516,0.093 -0.433634,0.17819 -0.136094,0.0851 -0.255545,0.16132 -0.357623,0.22931 -0.08505,0.068 -0.19534,0.17049 -0.331456,0.30654 -0.119094,0.11911 -0.213569,0.21243 -0.281614,0.28037 -0.05105,0.068 -0.127196,0.17941 -0.229291,0.33269 -0.119094,0.15312 -0.204406,0.26347 -0.255443,0.33147 -0.05105,0.0679 -0.127197,0.19531 -0.229268,0.38255 -0.119094,0.17024 -0.195242,0.28048 -0.22929,0.33146 -0.0021,0.005 -0.0029,0.0145 -0.005,0.0193 -1.303962,1.02225 -2.647812,1.53764 -4.033549,1.53764 -0.595454,0 -0.910505,-0.30713 -0.944528,-0.9196 0.01711,-0.85063 0.263803,-1.7013 0.740169,-2.55195 0.08507,-0.17025 0.07717,-0.28058 -0.02491,-0.33146 -0.102071,-0.068 -0.314746,-0.10229 -0.637993,-0.10229 -0.561431,0.034 -1.284735,0.33992 -2.169417,0.91837 -0.820321,0.54689 -1.640681,1.2439 -2.461002,2.0797 0.08193,-0.27863 0.329507,-0.91848 0.827395,-2.10463 0.170239,-0.42533 0.221311,-0.74027 0.153263,-0.94451 -0.05105,-0.16999 -0.204599,-0.25545 -0.459802,-0.25545 -0.340262,0 -0.619935,0.0851 -0.8411,0.25545 -0.935719,0.81664 -1.629171,1.46053 -2.190603,2.00493 -1.463124,1.34403 -2.505261,2.02734 -3.168773,2.02734 -0.221165,0 -0.331456,-0.22979 -0.331456,-0.68906 0.306236,-0.91871 0.765689,-1.8035 1.37816,-2.65413 0.238189,-0.4083 0.365427,-0.66311 0.382546,-0.7651 0.05105,-0.30625 -0.04218,-0.45979 -0.280366,-0.45979 -0.357277,0 -0.765539,0.1876 -1.224893,0.56198 -0.119095,0.10196 -0.417072,0.39092 -0.893438,0.86727 -0.427152,0.42716 -0.827564,0.79882 -1.213679,1.14389 -0.0017,9.6e-4 -0.0032,0.002 -0.005,0.005 -1.616245,1.42917 -3.036638,2.16954 -4.261582,2.22049 -0.255195,-0.0169 -0.459951,-0.10229 -0.613069,-0.25545 -0.136094,-0.17 -0.22143,-0.33949 -0.255445,-0.50963 -0.01713,-0.17023 -0.02491,-0.39987 -0.02491,-0.68908 2.347808,-1.5482 3.598817,-2.5774 3.751936,-3.08779 0.05105,-0.54435 -0.29022,-0.83444 -1.021781,-0.86851 -0.833644,0.17 -1.64102,0.67287 -2.423621,1.50651 -0.632729,0.6749 -1.049971,1.38033 -1.275982,2.11335 -1.221786,0.97124 -2.105615,1.48408 -2.610531,1.48408 -0.765589,0 -1.225041,-1.35217 -1.37816,-4.05725 -0.10207,-1.4631 -0.221525,-2.40698 -0.357624,-2.83231 1.582219,-0.47635 3.053802,-1.33621 4.414848,-2.57814 1.378061,-1.24197 2.067241,-2.60202 2.067241,-4.08214 0,-1.19093 -0.662961,-2.14398 -1.989983,-2.85852 -1.310008,-0.73156 -3.062507,-1.09779 -5.257196,-1.09779 z m 51.720896,1.09781 c 0.27221,0 0.408715,0.16155 0.408715,0.48471 0,0.37432 -0.263853,0.81668 -0.791259,1.32709 -0.478171,0.47821 -0.971056,0.75372 -1.479094,0.84359 0.870023,-1.76556 1.491297,-2.65539 1.861638,-2.65539 z m 15.403997,0.86726 c -0.408316,0 -0.824483,0.26385 -1.249813,0.79127 -1.344038,1.63326 -3.292136,5.24854 -5.844102,10.84584 -0.34026,0.30624 -0.807618,0.70659 -1.403076,1.19998 -0.595462,0.49331 -0.978754,0.80712 -1.148887,0.94329 v 9.6e-4 c -0.80732,0.60061 -1.45171,1.04531 -1.899019,1.3009 -0.459354,0.25515 -0.977908,0.45074 -1.556349,0.58689 -0.153118,0 -0.229291,-0.0682 -0.229291,-0.20424 0.034,-0.23823 0.102291,-0.48497 0.204358,-0.74015 0.102093,-0.25511 0.186154,-0.45988 0.254193,-0.61307 0.08508,-0.17024 0.196594,-0.37366 0.332707,-0.61182 0.153117,-0.25522 0.254245,-0.43375 0.305285,-0.53582 0.06805,-0.34026 0.07721,-0.56207 0.02616,-0.66416 -0.05105,-0.10197 -0.246643,-0.15336 -0.586903,-0.15336 -0.578448,0.034 -1.225594,0.31493 -1.940143,0.84234 -0.667102,0.47651 -1.504923,1.20581 -2.48343,2.142 0.03456,-0.11019 0.07166,-0.22401 0.213087,-0.6355 0.204164,-0.54441 0.399758,-1.13121 0.586902,-1.7607 0.170117,-0.42534 0.221309,-0.74037 0.153263,-0.94451 -0.05105,-0.17025 -0.2046,-0.25546 -0.459802,-0.25546 -0.408314,0 -0.81658,0.1102 -1.224893,0.33145 -0.527409,0.57845 -1.11421,1.18231 -1.760709,1.81179 -0.08507,0.11912 -0.08507,0.2216 0,0.30655 0.08507,0.068 0.204503,0.068 0.357627,0 0.374287,-0.30624 0.739272,-0.64625 1.096545,-1.02053 0.357272,-0.39136 0.57909,-0.62109 0.66416,-0.68909 0.136118,-0.0508 0.212267,-0.0261 0.229291,0.0759 -0.119094,0.49337 -0.34882,1.17464 -0.689081,2.04232 -0.340269,0.85067 -0.518806,1.36131 -0.535814,1.53143 -0.01713,0.10195 5.1e-5,0.17023 0.05109,0.20424 0.05105,0.0508 0.136359,0.0759 0.255445,0.0759 0.170119,0 0.365731,-0.0511 0.586903,-0.15335 0.238189,-0.0851 0.382595,-0.16132 0.433635,-0.22933 0.06805,-0.068 0.178339,-0.17047 0.331456,-0.30654 0.986759,-0.90169 1.769162,-1.58172 2.34761,-2.04108 0.532549,-0.41084 0.978996,-0.66364 1.348252,-0.77507 -0.640525,1.36864 -1.01759,2.31541 -1.117733,2.81615 0,0.4084 0.229725,0.63812 0.689081,0.68907 1.173902,0 2.712488,-0.7574 4.617957,-2.27159 0.01544,-0.0144 0.02218,-0.0326 0.03488,-0.0484 0.78832,-0.64554 1.297763,-1.06197 1.4442,-1.1788 -1.303351,2.91543 -2.399873,5.61511 -3.28092,8.09203 -0.918707,2.53495 -1.378155,4.24542 -1.378155,5.1301 0,0.37428 0.09448,0.66311 0.281608,0.86725 0.187142,0.22111 0.441848,0.33146 0.765091,0.33146 0.561434,0 1.20858,-1.00296 1.940147,-3.01051 0.714548,-1.99054 1.29219,-4.00689 1.734535,-6.04845 0.44234,-2.02455 0.649539,-3.30055 0.649539,-3.82795 0.01347,-0.44462 -7.66e-4,-0.62895 -0.02201,-1.05363 0.01689,-0.034 0.02751,-0.0614 0.06154,-0.14633 0.034,-0.0851 0.06023,-0.1442 0.07726,-0.17819 0.578448,0.23823 1.360849,0.35764 2.34761,0.35764 0.688341,0 1.525392,-0.21243 2.502118,-0.62429 -0.5417,0.65762 -0.828636,1.3486 -0.828636,2.07845 0,0.56142 0.161461,0.9697 0.484721,1.22489 0.32325,0.23825 0.858864,0.35763 1.607437,0.35763 1.139881,0 1.931435,-0.26385 2.37378,-0.79125 0.442332,-0.5274 0.654995,-1.27571 0.637992,-2.24543 0,-1.39508 -0.535619,-2.09217 -1.607445,-2.09217 -0.3913,0 -0.928154,0.17843 -1.60868,0.53581 -0.102072,0.034 -0.161197,0.0591 -0.178196,0.0759 l -0.170722,0.12829 c -1.223742,0.54362 -2.243079,0.81618 -3.059114,0.81618 -0.952732,0 -1.710162,-0.11165 -2.271593,-0.33271 0.05105,-0.0851 0.09308,-0.16928 0.127099,-0.25421 0.034,-0.0851 0.06814,-0.1794 0.10217,-0.28161 0.05105,-0.10219 0.0943,-0.18616 0.128354,-0.2542 1.667279,-1.61623 3.190057,-3.61551 4.568118,-5.99735 1.395075,-2.39887 2.092165,-4.04109 2.092165,-4.92574 0,-0.42535 -0.170625,-0.63802 -0.510898,-0.63802 z m -0.05109,0.48473 c 0.102071,0 0.153263,0.12731 0.153263,0.38255 0,0.25519 -0.237634,0.90233 -0.714002,1.94013 -0.459354,1.03781 -1.173508,2.32171 -2.143247,3.85289 -0.881856,1.37692 -1.80875,2.56973 -2.775012,3.59492 2.061974,-4.38318 3.673226,-7.46101 4.816079,-9.18358 0.255196,-0.39131 0.475772,-0.58691 0.662919,-0.58691 z m -67.980935,7.52879 h 0.0648 c 0.221165,0 0.416773,0.14443 0.586902,0.43366 -0.238189,0.0342 -0.408813,0.0511 -0.51089,0.0511 -0.102071,0 -0.204455,-0.0169 -0.3065349,-0.0511 0.017125,-0.068 0.043229,-0.15336 0.077261,-0.25546 0.044436,-0.0887 0.069827,-0.14083 0.088476,-0.1782 z m 16.194014,0.10229 c -0.187142,0.0169 -0.36567,0.11019 -0.535811,0.28036 -0.170118,0.15311 -0.272512,0.31448 -0.306535,0.48472 0.01713,0.20423 0.06031,0.34849 0.128353,0.43362 0.08507,0.0851 0.22946,0.12828 0.433632,0.12828 0.578451,-0.0851 0.92761,-0.29772 1.046705,-0.63798 0,-0.11911 -0.08531,-0.26365 -0.255445,-0.43365 -0.170141,-0.18711 -0.340775,-0.27232 -0.510892,-0.25543 z m 30.315795,2.06224 -0.05732,0.2093 c -0.493379,1.5652 -0.969896,2.78084 -1.42925,3.6485 -0.442339,0.85066 -0.807325,1.37838 -1.096546,1.58252 -0.27221,0.1871 -0.578096,0.28037 -0.918359,0.28037 -0.408314,0 -0.732512,-0.13526 -0.970694,-0.40747 -0.221164,-0.28922 -0.331456,-0.68166 -0.331456,-1.17504 0,-0.86768 0.383294,-1.62387 1.148885,-2.27035 0.762926,-0.64685 1.986382,-1.26956 3.654739,-1.86788 z m -36.714396,0.92334 c 0.136094,0.034 0.187285,0.14419 0.153262,0.33146 -0.05105,0.18711 -0.280767,0.45101 -0.689081,0.79126 -0.367368,0.30347 -1.111012,0.84418 -2.168174,1.58252 0.196787,-0.6316 0.531849,-1.18683 1.019291,-1.65852 0.544419,-0.5274 1.106251,-0.87658 1.684696,-1.04672 z m 59.017918,0.48473 c 0.289227,0 0.526859,0.16156 0.714002,0.48473 0.204166,0.32324 0.306535,0.72358 0.306535,1.19996 0,1.58223 -0.7824,2.37254 -2.347602,2.37254 v 9.6e-4 c -0.357276,0 -0.621129,-0.0945 -0.791263,-0.28161 -0.153118,-0.20424 -0.230521,-0.53502 -0.230521,-0.99437 0,-0.71455 0.145667,-1.28554 0.434881,-1.71088 0.0631,-0.0884 0.11965,-0.16927 0.17822,-0.22931 0.221165,-0.22112 0.502085,-0.41677 0.842346,-0.58691 0.357273,-0.17025 0.655255,-0.25543 0.893437,-0.25543 z m -36.434029,0.38253 c 0.187141,0.068 0.340718,0.2216 0.459802,0.45982 0.136119,0.23824 0.203104,0.50995 0.203104,0.81618 -0.136118,0.47638 -0.356677,0.91084 -0.662913,1.30216 -0.289225,0.39121 -0.543921,0.66296 -0.76509,0.81616 -0.204166,0.13626 -0.39185,0.23849 -0.561982,0.30654 -0.170117,0 -0.323691,-0.0762 -0.459801,-0.22931 -0.136119,-0.15312 -0.204359,-0.34082 -0.204359,-0.56199 0,-0.57847 0.212654,-1.19938 0.637991,-1.8629 0.425328,-0.68047 0.876873,-1.02965 1.353239,-1.04669 z m 28.298399,2.27412 c 6.29e-4,0.0294 0.005,0.0408 0.005,0.0735 v 9.6e-4 c 0,0.40834 -0.212653,1.58194 -0.63799,3.52142 -0.408314,1.93949 -0.918956,3.86137 -1.531428,5.76686 -0.62948,1.92246 -1.155939,2.88341 -1.581269,2.88341 -0.05105,0 -0.102235,-0.067 -0.153262,-0.20303 -0.05105,-0.13599 -0.07726,-0.28168 -0.07726,-0.43488 0,-1.65523 1.330811,-5.53322 3.97623,-11.60845 z"
       id="path857"
       inkscape:connector-curvature="0"
       sodipodi:nodetypes="scsccccccccssccccccccccccsccccccccccccscsccscssssscccscscsccsccccscccsccccscccscccccccsccccccccccccccscccccscscccscccccscccccscsccccccccccccccsccccccccsccscccsccccccccccccscccscsssscssssccccccccccsccccccsccccccccccscccccccccccscsccscccscscscsccscccscccccssscscccscccsccccccccccccccsscscccccsccscscccscccccccccccscccssccscccscsccscc" />
    <path
       style="fill:none;stroke:#000000;stroke-width:0.13229167;stroke-linecap:butt;stroke-linejoin:miter;stroke-miterlimit:4;stroke-dasharray:none;stroke-opacity:1"
       d="M 9.9260479,288.61082 H 57.790748"
       id="path4658"
       inkscape:connector-curvature="0" />
    <text
       xml:space="preserve"
       style="font-style:normal;font-variant:normal;font-weight:normal;font-stretch:normal;font-size:4.93888903px;line-height:1.25;font-family:Andis;-inkscape-font-specification:Andis;letter-spacing:2.11666656px;word-spacing:0px;fill:#000000;fill-opacity:1;stroke:none;stroke-width:0.26458332"
       x="11.947513"
       y="294.96671"
       id="text4662"><tspan
         sodipodi:role="line"
         id="tspan4660"
         x="11.947513"
         y="294.96671"
         style="font-style:normal;font-variant:normal;font-weight:normal;font-stretch:normal;font-size:4.93888903px;font-family:Andis;-inkscape-font-specification:Andis;letter-spacing:2.11666656px;stroke-width:0.26458332">UNOFFICIAL</tspan></text>
  </g>
  <style
     id="style1425"
     type="text/css">
                	.st0{fill:#675A59;}
                	.st1{fill:#BBB1B0;}
                	.st2{fill:none;stroke:#C69682;stroke-width:2;stroke-miterlimit:10;}
                	.st3{fill:#A97E6F;}
                </style>
</svg>
